<svg width="1400" height="875" viewBox="0 0 1400 875" fill="none" xmlns="http://www.w3.org/2000/svg">
  <rect width="1400" height="875" rx="28" fill="#F2E8DA"/>
  <rect x="84" y="82" width="1232" height="710" rx="28" fill="#FBF6EE" stroke="#A99273" stroke-width="8"/>
  <rect x="146" y="150" width="356" height="252" rx="18" fill="#FFFDF9" stroke="#8B775C" stroke-width="6"/>
  <rect x="534" y="150" width="292" height="190" rx="18" fill="#FFFDF9" stroke="#8B775C" stroke-width="6"/>
  <rect x="854" y="150" width="256" height="292" rx="18" fill="#FFFDF9" stroke="#8B775C" stroke-width="6"/>
  <rect x="146" y="432" width="486" height="238" rx="18" fill="#FFFDF9" stroke="#8B775C" stroke-width="6"/>
  <rect x="664" y="470" width="446" height="200" rx="18" fill="#FFFDF9" stroke="#8B775C" stroke-width="6"/>
  <line x1="322" y1="150" x2="322" y2="402" stroke="#8B775C" stroke-width="5"/>
  <line x1="534" y1="250" x2="826" y2="250" stroke="#8B775C" stroke-width="5"/>
  <line x1="390" y1="432" x2="390" y2="670" stroke="#8B775C" stroke-width="5"/>
  <line x1="862" y1="470" x2="862" y2="670" stroke="#8B775C" stroke-width="5"/>
  <circle cx="226" cy="228" r="26" fill="#E0D0B8"/>
  <circle cx="928" cy="588" r="24" fill="#E0D0B8"/>
  <rect x="1148" y="150" width="84" height="520" rx="14" fill="#EFE2CF" stroke="#8B775C" stroke-width="5"/>
</svg>
