<svg width="1400" height="875" viewBox="0 0 1400 875" fill="none" xmlns="http://www.w3.org/2000/svg">
  <rect width="1400" height="875" rx="28" fill="#181512"/>
  <rect x="60" y="520" width="1280" height="220" rx="24" fill="#1E1A18"/>
  <rect x="120" y="392" width="1100" height="150" rx="20" fill="#23201D"/>
  <rect x="200" y="264" width="420" height="140" rx="16" fill="#272320"/>
  <rect x="666" y="248" width="330" height="156" rx="16" fill="#2C2723"/>
  <rect x="1020" y="222" width="144" height="182" rx="16" fill="#322B24"/>
  <rect x="250" y="298" width="144" height="86" rx="12" fill="#F7E7CE" fill-opacity="0.14"/>
  <rect x="420" y="298" width="144" height="86" rx="12" fill="#F7E7CE" fill-opacity="0.08"/>
  <rect x="708" y="282" width="120" height="102" rx="12" fill="#F7E7CE" fill-opacity="0.1"/>
  <rect x="852" y="282" width="120" height="102" rx="12" fill="#F7E7CE" fill-opacity="0.12"/>
  <rect x="76" y="118" width="1248" height="116" rx="26" fill="#32414D"/>
  <rect x="76" y="118" width="1248" height="116" rx="26" fill="#8AA0B3" fill-opacity="0.44"/>
</svg>
