<svg width="1600" height="900" viewBox="0 0 1600 900" fill="none" xmlns="http://www.w3.org/2000/svg">
  <defs>
    <linearGradient id="bg" x1="120" y1="70" x2="1420" y2="820" gradientUnits="userSpaceOnUse">
      <stop stop-color="#3A2F25"/>
      <stop offset="0.45" stop-color="#161616"/>
      <stop offset="1" stop-color="#0E0E0E"/>
    </linearGradient>
    <linearGradient id="glass" x1="0" y1="0" x2="0" y2="1">
      <stop stop-color="#F7E7CE" stop-opacity="0.3"/>
      <stop offset="1" stop-color="#F7E7CE" stop-opacity="0.02"/>
    </linearGradient>
  </defs>
  <rect width="1600" height="900" rx="42" fill="url(#bg)"/>
  <circle cx="1240" cy="160" r="180" fill="#F7E7CE" fill-opacity="0.08"/>
  <circle cx="290" cy="170" r="140" fill="#FFF8EE" fill-opacity="0.05"/>
  <rect x="70" y="520" width="1460" height="250" rx="28" fill="#151515"/>
  <rect x="120" y="470" width="1260" height="180" rx="20" fill="#1B1B1B"/>
  <rect x="170" y="350" width="520" height="170" rx="16" fill="#202020"/>
  <rect x="740" y="335" width="460" height="150" rx="16" fill="#1D1D1D"/>
  <rect x="1260" y="300" width="110" height="220" rx="16" fill="#262626"/>
  <rect x="220" y="390" width="210" height="110" rx="12" fill="#F7E7CE" fill-opacity="0.12"/>
  <rect x="455" y="390" width="190" height="110" rx="12" fill="#F7E7CE" fill-opacity="0.09"/>
  <rect x="785" y="370" width="170" height="95" rx="12" fill="#F7E7CE" fill-opacity="0.11"/>
  <rect x="980" y="370" width="170" height="95" rx="12" fill="#F7E7CE" fill-opacity="0.07"/>
  <rect x="130" y="650" width="250" height="22" rx="11" fill="#F7E7CE" fill-opacity="0.14"/>
  <rect x="130" y="690" width="180" height="18" rx="9" fill="#F7E7CE" fill-opacity="0.08"/>
  <rect x="1110" y="150" width="260" height="220" rx="26" fill="url(#glass)" stroke="#F7E7CE" stroke-opacity="0.16"/>
  <rect x="1142" y="188" width="194" height="20" rx="10" fill="#F7E7CE" fill-opacity="0.18"/>
  <rect x="1142" y="226" width="152" height="16" rx="8" fill="#F7E7CE" fill-opacity="0.1"/>
  <rect x="1142" y="278" width="94" height="54" rx="16" fill="#F7E7CE" fill-opacity="0.12"/>
</svg>
